<svg width="24" height="24" viewBox="0 0 24 24" fill="none" xmlns="http://www.w3.org/2000/svg">
<path d="M17.9999 13.5251L17.6314 14.2622C17.4379 14.6492 17.124 14.963 16.737 15.1565L16 15.5251L16.7369 15.8935C17.124 16.087 17.4379 16.4009 17.6314 16.788L17.9999 17.5251L18.3685 16.788C18.562 16.4009 18.8759 16.087 19.263 15.8935L19.9999 15.5251L19.2629 15.1565C18.8758 14.963 18.562 14.6492 18.3685 14.2622L17.9999 13.5251Z" fill="#6F6F6F"/>
<path d="M17.9999 8.52509L18.3685 7.78802C18.562 7.40091 18.8759 7.08703 19.263 6.89351L19.9999 6.52509L19.2629 6.15654C18.8758 5.96301 18.562 5.64919 18.3685 5.26216L17.9999 4.52509L17.6314 5.26218C17.4379 5.64919 17.124 5.96301 16.737 6.15654L16 6.52509L16.7369 6.89351C17.124 7.08703 17.4379 7.4009 17.6314 7.788L17.9999 8.52509Z" fill="#6F6F6F"/>
<path d="M7 9.52509L7.70179 8.12142C7.89532 7.73433 8.20918 7.42047 8.59626 7.22694L10 6.52509L8.59626 5.82324C8.20918 5.6297 7.89532 5.31584 7.70179 4.92876L7 3.52509L6.29808 4.92885C6.10455 5.31587 5.79072 5.6297 5.40369 5.82322L4 6.52509L5.40369 7.22696C5.79072 7.42047 6.10455 7.7343 6.29808 8.12133L7 9.52509Z" fill="#6F6F6F"/>
<path d="M15.1213 9.40375C14.7462 9.0287 14.2375 8.81799 13.7071 8.81799C13.1767 8.81799 12.668 9.0287 12.2929 9.40375L4.63598 17.0606C4.2609 17.4357 4.05018 17.9444 4.05017 18.4748C4.05017 19.0053 4.26088 19.514 4.63595 19.8891C5.01102 20.2641 5.51973 20.4749 6.05017 20.4749C6.5806 20.4749 7.08932 20.2642 7.4644 19.8891L15.1213 12.2322C15.4964 11.8572 15.7071 11.3485 15.7071 10.818C15.7071 10.2876 15.4963 9.77882 15.1213 9.40375ZM14.4142 11.5251L13.7071 12.2322L12.2929 10.818L13 10.1108C13.1875 9.9233 13.4419 9.81794 13.7071 9.81794C13.9723 9.81794 14.2267 9.9233 14.4142 10.1108C14.6018 10.2984 14.7071 10.5527 14.7071 10.818C14.7071 11.0832 14.6018 11.3375 14.4142 11.5251Z" fill="#6F6F6F"/>
</svg>
