<svg width="300" height="132" viewBox="0 0 300 132" fill="none" xmlns="http://www.w3.org/2000/svg">
<path d="M222.215 90.271V41.4502H229.789L255.216 72.31L255.168 46.8044C255.168 43.3332 257.835 41.4502 260.23 41.4502H265V90.271H262.908C259.082 90.271 255.73 88.1144 253.099 85.1268L231.998 59.4599V85.4227C231.998 87.6854 230.001 90.271 226.742 90.271H222.215Z" fill="#939CA1"/>
<path d="M178.454 40.4768C163.993 40.4768 152.549 51.3773 152.549 66.0482C152.549 79.4592 163.335 91.5239 178.48 91.5239C192.541 91.5239 204.453 80.3568 204.453 66.1712C204.453 51.494 193.13 40.4768 178.454 40.4768ZM178.466 49.9749C187.049 49.9749 194.502 56.8738 194.502 66.0647C194.502 74.183 187.746 81.9409 178.482 81.9409C169.141 81.9409 162.488 74.3858 162.488 65.9877C162.488 57.2678 169.547 49.9749 178.466 49.9749Z" fill="#939CA1"/>
<path d="M90.9071 41.4502L114.255 90.271H119.401L142.754 41.4502H136.658C132.792 41.4502 130.602 43.4977 129.39 46.1091L116.852 73.0704L104.179 46.0256C102.732 42.7928 100.116 41.4502 96.6826 41.4502H90.9071Z" fill="#939CA1"/>
<path d="M58.9714 41.4502L35 90.271H40.884C44.3202 90.271 46.7466 88.1745 48.2097 85.4935L52.9787 76.2164C60.2589 77.142 69.4686 79.8049 76.9565 90.2834L88.2131 90.271L64.2427 41.4502L58.9714 41.4502ZM61.6213 58.2518L67.9644 71.6286C65.7113 70.4121 61.2169 68.8333 56.9812 68.0006L61.6213 58.2518Z" fill="#939CA1"/>
</svg>
