<svg width="300" height="132" viewBox="0 0 300 132" fill="none" xmlns="http://www.w3.org/2000/svg">
<path d="M54.1529 66.0025C54.1529 36.0092 98.6382 13.675 149.989 13.675C201.339 13.675 245.847 36.0092 245.847 66.0025C245.847 96.0049 201.339 118.284 149.989 118.284C98.6382 118.284 54.1529 96.0049 54.1529 66.0025Z" fill="white"/>
<path fill-rule="evenodd" clip-rule="evenodd" d="M149.989 11.2039C204.291 11.2039 248.364 35.7577 248.364 66.0027C248.364 96.2523 204.291 120.797 149.989 120.797C95.7092 120.797 51.6357 96.2523 51.6357 66.0027C51.6357 35.7577 95.7092 11.2039 149.989 11.2039ZM149.989 16.1467C98.4552 16.1467 56.6014 38.5266 56.6014 66.0027C56.6014 93.4902 98.4552 115.818 149.989 115.818C201.522 115.818 243.376 93.4902 243.376 66.0027C243.376 38.5266 201.522 16.1467 149.989 16.1467ZM132.712 71.2636H113.352C113.581 76.0279 116.258 78.2362 120.263 78.2362C123.238 78.2362 125.274 76.5611 125.801 74.8746H132.14C130.515 80.6389 125.801 83.3071 119.988 83.3071C111.75 83.3071 106.625 77.6389 106.625 69.5428C106.625 61.7006 112.048 55.7281 119.988 55.7281C128.913 55.7281 133.215 63.2178 132.712 71.2636ZM119.805 60.6663C115.778 60.6663 113.718 63.346 113.398 66.7739H125.961C125.48 63.1148 123.947 60.6663 119.805 60.6663ZM216.533 71.2636H197.174C197.38 76.0279 200.08 78.2362 204.062 78.2362C207.06 78.2362 209.096 76.5611 209.623 74.8746H215.961C214.337 80.6389 209.623 83.3071 203.81 83.3071C195.549 83.3071 190.446 77.6389 190.446 69.5428C190.446 61.7006 195.87 55.7281 203.81 55.7281C212.735 55.7281 217.037 63.2178 216.533 71.2636ZM203.604 60.6663C199.6 60.6663 197.54 63.346 197.197 66.7739H209.783C209.302 63.1148 207.769 60.6663 203.604 60.6663ZM72.7571 82.5977H79.9425V67.0119H95.4574V82.5977H102.643V46.3985H95.4574V61.2201H79.9425V46.3985H72.7571V82.5977ZM136.67 82.5977H143.444V68.4467C143.444 63.1331 145.32 60.9569 149.211 60.9569C152.552 60.9569 154.062 63.0828 154.062 67.3826V82.5977H160.812V66.5061C160.812 60.0301 158.89 55.7281 151.224 55.7281C148.204 55.7281 145.046 57.1468 143.238 60.0805H143.078V56.4375H136.67V82.5977ZM166.579 82.5977H173.33V68.4306L183.307 82.5977H191.705L180.721 67.918L190.446 56.4375H182.391L173.33 67.7167V46.3985H166.579V82.5977ZM220.492 82.5977H227.243V46.3985H220.492V82.5977Z" fill="#939CA1"/>
</svg>
