<svg width="178" height="35" viewBox="0 0 178 35" fill="none" xmlns="http://www.w3.org/2000/svg">
<path d="M35.2989 27V6.67866H40.2373L45.6299 20.9547H45.8569L51.2495 6.67866H56.2163V27H52.4131V16.9812L52.6402 13.6038H52.4131L47.2476 27H44.2676L39.0737 13.6038H38.8466L39.0737 16.9812V27H35.2989Z" fill="#212121"/>
<path d="M64.771 27.4541C63.7492 27.4541 62.841 27.2554 62.0463 26.8581C61.2705 26.4418 60.6556 25.8647 60.2015 25.1268C59.7474 24.3889 59.5203 23.5374 59.5203 22.5725C59.5203 21.5696 59.7758 20.7087 60.2866 19.9897C60.8164 19.2707 61.5165 18.7125 62.3869 18.3152C63.2762 17.9178 64.2601 17.7192 65.3386 17.7192C65.9251 17.7192 66.4549 17.757 66.928 17.8327C67.4199 17.8895 67.8551 17.9651 68.2335 18.0597C68.612 18.1544 68.9242 18.2584 69.1701 18.3719V17.7476C69.1701 16.9718 68.8768 16.3379 68.2903 15.846C67.7037 15.3351 66.8996 15.0797 65.8778 15.0797C65.1967 15.0797 64.5344 15.2405 63.8911 15.5622C63.2667 15.8649 62.7464 16.2717 62.3301 16.7826L59.9461 14.9094C60.4191 14.3039 60.9678 13.793 61.5922 13.3768C62.2166 12.9416 62.9072 12.6199 63.6641 12.4118C64.4209 12.1847 65.2156 12.0712 66.0481 12.0712C68.2619 12.0712 69.9459 12.5821 71.1001 13.6038C72.2543 14.6256 72.8314 16.1203 72.8314 18.0881V27H69.1701V25.5242H68.9431C68.6782 25.8647 68.3471 26.1864 67.9497 26.4891C67.5524 26.773 67.0888 27 66.559 27.1703C66.0292 27.3595 65.4332 27.4541 64.771 27.4541ZM65.6508 24.5592C66.4076 24.5592 67.0415 24.3983 67.5524 24.0767C68.0822 23.7361 68.4795 23.3009 68.7444 22.7711C69.0282 22.2413 69.1701 21.6832 69.1701 21.0966C68.7539 20.8885 68.2808 20.7276 67.751 20.6141C67.2212 20.4817 66.682 20.4154 66.1333 20.4154C65.0358 20.4154 64.279 20.6236 63.8627 21.0398C63.4465 21.4561 63.2383 21.967 63.2383 22.5725C63.2383 23.1401 63.437 23.6131 63.8344 23.9915C64.2506 24.37 64.8561 24.5592 65.6508 24.5592Z" fill="#212121"/>
<path d="M82.8663 33.5846C81.5608 33.5846 80.4255 33.3764 79.4605 32.9602C78.5145 32.5628 77.7387 32.0425 77.1332 31.3992C76.5277 30.7559 76.102 30.0842 75.856 29.3841L79.347 27.965C79.6497 28.6651 80.1038 29.2232 80.7093 29.6395C81.3337 30.0747 82.0527 30.2923 82.8663 30.2923C84.0205 30.2923 84.9477 29.9328 85.6477 29.2138C86.3478 28.5137 86.6979 27.492 86.6979 26.1486V25.0133H86.4708C86.0167 25.6566 85.4207 26.1486 84.6828 26.4891C83.9448 26.8297 83.1028 27 82.1568 27C80.9837 27 79.8768 26.6973 78.8361 26.0918C77.8144 25.4863 76.9818 24.6254 76.3385 23.5091C75.7141 22.3927 75.4019 21.0682 75.4019 19.5356C75.4019 17.9841 75.7141 16.6596 76.3385 15.5622C76.9818 14.4458 77.8144 13.5849 78.8361 12.9794C79.8768 12.3739 80.9837 12.0712 82.1568 12.0712C83.1028 12.0712 83.9448 12.2415 84.6828 12.5821C85.4207 12.9037 86.0167 13.3957 86.4708 14.0579H86.6979V12.5253H90.274V26.0066C90.274 27.5582 89.9712 28.9016 89.3658 30.0369C88.7603 31.1721 87.8994 32.0425 86.783 32.648C85.6856 33.2724 84.38 33.5846 82.8663 33.5846ZM82.9231 23.6226C83.5853 23.6226 84.2003 23.4712 84.7679 23.1685C85.3545 22.8468 85.818 22.3832 86.1586 21.7778C86.5181 21.1534 86.6979 20.406 86.6979 19.5356C86.6979 18.6274 86.5181 17.8705 86.1586 17.2651C85.818 16.6596 85.3545 16.2055 84.7679 15.9027C84.2003 15.6 83.5853 15.4486 82.9231 15.4486C82.2609 15.4486 81.6364 15.6 81.0499 15.9027C80.4633 16.2055 79.9903 16.6596 79.6308 17.2651C79.2902 17.8705 79.1199 18.6274 79.1199 19.5356C79.1199 20.4249 79.2902 21.1817 79.6308 21.8061C79.9903 22.4116 80.4633 22.8657 81.0499 23.1685C81.6364 23.4712 82.2609 23.6226 82.9231 23.6226Z" fill="#212121"/>
<path d="M93.8521 27V12.5253H97.5701V27H93.8521ZM95.7253 10.9359C95.063 10.9359 94.4954 10.6994 94.0224 10.2264C93.5493 9.75335 93.3128 9.18571 93.3128 8.52347C93.3128 7.86123 93.5493 7.30306 94.0224 6.84895C94.4954 6.37592 95.063 6.1394 95.7253 6.1394C96.3875 6.1394 96.9457 6.37592 97.3998 6.84895C97.8728 7.30306 98.1093 7.86123 98.1093 8.52347C98.1093 9.18571 97.8728 9.75335 97.3998 10.2264C96.9457 10.6994 96.3875 10.9359 95.7253 10.9359Z" fill="#212121"/>
<path d="M107.953 27.4541C106.477 27.4541 105.162 27.1325 104.008 26.4891C102.873 25.8269 101.974 24.9187 101.312 23.7645C100.669 22.5914 100.347 21.2574 100.347 19.7627C100.347 18.2679 100.669 16.9434 101.312 15.7892C101.974 14.635 102.873 13.7268 104.008 13.0646C105.162 12.4023 106.477 12.0712 107.953 12.0712C109.561 12.0712 110.943 12.4118 112.097 13.0929C113.251 13.7741 114.084 14.758 114.594 16.0446L111.189 17.4637C110.886 16.8015 110.46 16.319 109.911 16.0163C109.363 15.6946 108.71 15.5338 107.953 15.5338C107.215 15.5338 106.553 15.7135 105.966 16.073C105.38 16.4136 104.916 16.8961 104.576 17.5205C104.235 18.1449 104.065 18.8923 104.065 19.7627C104.065 20.633 104.235 21.3899 104.576 22.0332C104.916 22.6576 105.38 23.1495 105.966 23.5091C106.553 23.8496 107.215 24.0199 107.953 24.0199C108.786 24.0199 109.476 23.8402 110.025 23.4807C110.574 23.1022 111.018 22.5914 111.359 21.9481L114.68 23.4239C114.112 24.6349 113.251 25.6093 112.097 26.3472C110.943 27.0852 109.561 27.4541 107.953 27.4541Z" fill="#212121"/>
<path d="M127.235 27.4541C125.74 27.4541 124.35 27.1892 123.063 26.6594C121.795 26.1107 120.679 25.3633 119.714 24.4173C118.768 23.4523 118.03 22.3265 117.5 21.0398C116.971 19.7343 116.706 18.3341 116.706 16.8393C116.706 15.3256 116.971 13.9255 117.5 12.6388C118.03 11.3522 118.768 10.2358 119.714 9.28978C120.679 8.3248 121.795 7.57741 123.063 7.04762C124.35 6.49891 125.74 6.22455 127.235 6.22455C128.276 6.22455 129.241 6.357 130.13 6.62189C131.038 6.88679 131.871 7.26521 132.628 7.75716C133.385 8.24912 134.066 8.84513 134.671 9.54522L132.94 11.2197C132.429 10.5953 131.88 10.0845 131.294 9.68713C130.726 9.28978 130.102 8.9965 129.421 8.80729C128.758 8.61808 128.03 8.52347 127.235 8.52347C125.778 8.52347 124.435 8.86405 123.205 9.54522C121.975 10.2264 120.991 11.1914 120.253 12.4402C119.515 13.67 119.146 15.1364 119.146 16.8393C119.146 18.5233 119.515 19.9897 120.253 21.2385C120.991 22.4873 121.975 23.4523 123.205 24.1334C124.435 24.8146 125.778 25.1552 127.235 25.1552C128.56 25.1552 129.733 24.8808 130.755 24.3321C131.795 23.7834 132.713 23.0455 133.508 22.1183L135.267 23.8212C134.681 24.5213 133.971 25.1457 133.139 25.6944C132.325 26.2432 131.417 26.6783 130.414 27C129.43 27.3027 128.371 27.4541 127.235 27.4541Z" fill="#212121"/>
<path d="M142.243 27.4541C141.165 27.4541 140.219 27.246 139.405 26.8297C138.592 26.4135 137.948 25.8458 137.475 25.1268C137.021 24.3889 136.794 23.5564 136.794 22.6292C136.794 21.5696 137.068 20.6803 137.617 19.9613C138.166 19.2234 138.904 18.6747 139.831 18.3152C140.758 17.9368 141.78 17.7476 142.896 17.7476C143.54 17.7476 144.136 17.8043 144.684 17.9178C145.233 18.0124 145.706 18.1354 146.103 18.2868C146.52 18.4193 146.832 18.5517 147.04 18.6841V17.8043C147.04 16.7069 146.652 15.8365 145.876 15.1932C145.101 14.5499 144.154 14.2282 143.038 14.2282C142.243 14.2282 141.496 14.408 140.796 14.7675C140.115 15.108 139.576 15.5905 139.178 16.2149L137.362 14.8526C137.74 14.285 138.213 13.793 138.781 13.3768C139.348 12.9605 139.992 12.6388 140.711 12.4118C141.449 12.1847 142.225 12.0712 143.038 12.0712C145.006 12.0712 146.548 12.5915 147.664 13.6322C148.781 14.6729 149.339 16.073 149.339 17.8327V27H147.04V24.9281H146.926C146.68 25.3444 146.33 25.7512 145.876 26.1486C145.422 26.527 144.883 26.8392 144.259 27.0852C143.653 27.3311 142.981 27.4541 142.243 27.4541ZM142.47 25.3255C143.303 25.3255 144.06 25.1174 144.741 24.7011C145.441 24.2848 145.999 23.7266 146.416 23.0266C146.832 22.3265 147.04 21.5602 147.04 20.7276C146.605 20.4249 146.056 20.1789 145.394 19.9897C144.75 19.8005 144.041 19.7059 143.265 19.7059C141.884 19.7059 140.872 19.9897 140.228 20.5573C139.585 21.125 139.263 21.8251 139.263 22.6576C139.263 23.4523 139.566 24.0956 140.172 24.5876C140.777 25.0795 141.543 25.3255 142.47 25.3255Z" fill="#212121"/>
<path d="M152.638 27V12.5253H154.937V14.8526H155.051C155.24 14.3039 155.552 13.8309 155.987 13.4335C156.441 13.0173 156.952 12.6956 157.52 12.4685C158.106 12.2226 158.684 12.0996 159.251 12.0996C159.686 12.0996 160.027 12.128 160.273 12.1847C160.519 12.2226 160.746 12.2888 160.954 12.3834V14.9945C160.651 14.8431 160.32 14.7296 159.961 14.6539C159.62 14.5783 159.27 14.5404 158.911 14.5404C158.211 14.5404 157.567 14.7391 156.981 15.1364C156.394 15.5338 155.921 16.0636 155.562 16.7258C155.221 17.388 155.051 18.1165 155.051 18.9112V27H152.638Z" fill="#212121"/>
<path d="M168.747 27.4541C167.442 27.4541 166.259 27.123 165.2 26.4608C164.159 25.7985 163.336 24.8903 162.73 23.7361C162.125 22.5819 161.822 21.2574 161.822 19.7627C161.822 18.2679 162.125 16.9434 162.73 15.7892C163.336 14.635 164.159 13.7268 165.2 13.0646C166.259 12.4023 167.442 12.0712 168.747 12.0712C169.523 12.0712 170.233 12.1942 170.876 12.4402C171.519 12.6861 172.077 13.0078 172.551 13.4051C173.042 13.8025 173.421 14.2282 173.686 14.6823H173.799L173.686 12.6672V6.67866H176.098V27H173.799V24.8714H173.686C173.421 25.3066 173.042 25.7228 172.551 26.1202C172.077 26.5175 171.519 26.8392 170.876 27.0852C170.233 27.3311 169.523 27.4541 168.747 27.4541ZM169.003 25.2687C169.835 25.2687 170.611 25.0511 171.33 24.6159C172.068 24.1618 172.664 23.528 173.118 22.7144C173.572 21.8818 173.799 20.8979 173.799 19.7627C173.799 18.6274 173.572 17.6529 173.118 16.8393C172.664 16.0068 172.068 15.3729 171.33 14.9378C170.611 14.4836 169.835 14.2566 169.003 14.2566C168.17 14.2566 167.385 14.4836 166.647 14.9378C165.928 15.3729 165.342 16.0068 164.887 16.8393C164.433 17.6529 164.206 18.6274 164.206 19.7627C164.206 20.879 164.433 21.8534 164.887 22.686C165.342 23.5185 165.928 24.1618 166.647 24.6159C167.385 25.0511 168.17 25.2687 169.003 25.2687Z" fill="#212121"/>
<path d="M13.5938 3.90613L17.4388 13.6551L27.1877 17.5L17.4388 21.3449L13.5938 31.0938L9.74892 21.3449L0 17.5L9.74892 13.6551L13.5938 3.90613Z" fill="#212121"/>
</svg>
