<svg width="300" height="132" viewBox="0 0 300 132" fill="none" xmlns="http://www.w3.org/2000/svg">
<mask id="mask0_2029_1577" style="mask-type:luminance" maskUnits="userSpaceOnUse" x="-893" y="-36" width="1258" height="1550">
<path d="M-892.999 1513.89H364.56V-35.7128H-892.999V1513.89Z" fill="white"/>
</mask>
<g mask="url(#mask0_2029_1577)">
<path d="M159.697 45.8585C159.281 46.3631 159.046 46.9266 159.046 47.9064V74.8464H158.896C158.896 74.8464 144.151 48.5582 143.438 47.3429C142.934 46.4809 142.37 45.888 141.628 45.4422C140.886 45.028 140.114 44.761 138.632 44.761H133.767C132.637 44.761 131.927 45.1458 131.422 45.7408C131.006 46.2433 130.768 46.8089 130.768 47.7866V85.9732C130.768 86.9529 131.006 87.5164 131.422 88.021C131.927 88.614 132.637 88.9987 133.767 88.9987H136.525C137.652 88.9987 138.365 88.614 138.869 88.021C139.284 87.5164 139.521 86.9529 139.521 85.9732V58.3792H139.671C139.671 58.3792 154.979 85.498 155.604 86.5072C156.464 87.9306 157.916 88.9987 159.994 88.9987H164.712C165.839 88.9987 166.552 88.614 167.056 88.021C167.47 87.5164 167.708 86.9529 167.708 85.9732V51.5249H229.689C230.314 51.5249 230.787 51.3483 231.144 51.0518C231.529 50.6944 231.708 50.2192 231.708 49.5086V46.8972C231.708 46.1844 231.529 45.7092 231.144 45.3539C230.787 45.0575 230.314 44.8787 229.689 44.8787H162.042C160.915 44.8787 160.202 45.2656 159.697 45.8585ZM186.757 56.0643C176.461 56.0643 170.675 64.1066 170.675 72.5925C170.675 81.6419 176.877 89.5938 186.816 89.5938C191.772 89.5938 196.637 87.7246 199.425 84.4299C200.642 83.0064 201.622 81.0174 201.622 79.8022C201.622 79.3858 201.532 79.0305 201.296 78.7635C201.059 78.467 200.701 78.2883 200.079 78.2883H195.302C194.352 78.2883 193.7 78.6436 193.225 79.3564C191.831 81.4043 189.812 82.4724 186.846 82.4724C182.394 82.4724 179.518 79.0894 179.31 75.3805H199.961C200.88 75.3805 201.532 75.1723 201.978 74.7287C202.482 74.2535 202.72 73.5702 202.72 72.2939C202.72 68.4084 201.502 64.3736 198.952 61.2871C196.341 58.1711 192.365 56.0643 186.757 56.0643ZM218.592 56.0643C210.464 56.0643 205.123 59.9225 205.123 66.0935C205.123 68.2886 205.924 70.0694 207.23 71.4634C208.744 73.0971 210.909 74.2241 214.055 75.0252L220.848 76.745C222.717 77.2202 224.378 77.7837 224.378 79.4153C224.378 81.9384 221.708 82.7983 218.861 82.7983C217.465 82.7983 216.012 82.5313 214.824 81.9383C213.994 81.522 213.283 80.9291 212.778 80.1281C212.333 79.4447 212.186 78.9401 211.502 78.5553C211.086 78.3178 210.581 78.2883 209.9 78.2883H206.221C205.419 78.2883 205.035 78.5259 204.768 78.8518C204.501 79.1777 204.41 79.6529 204.41 80.1281C204.41 81.3139 204.827 82.7983 205.806 84.1334C208.06 87.159 212.778 89.5938 218.8 89.5938C224.736 89.5938 232.955 87.1296 232.955 79.1777C232.955 77.1319 232.36 75.3805 231.262 73.9571C229.868 72.1468 227.881 70.8999 224.498 70.04L217.764 68.318C214.973 67.6073 213.668 67.1027 213.668 65.3807C213.668 63.7197 215.152 62.3846 218.592 62.3846C220.61 62.3846 222.45 62.8303 223.638 64.0772C224.616 65.1158 224.439 65.6499 225.211 66.0641C225.684 66.3017 226.218 66.3017 227.051 66.3017H230.402C230.936 66.3017 231.323 66.2133 231.617 65.8854C231.857 65.6183 232.004 65.2041 232.004 64.5208C232.004 62.9775 230.995 60.9906 229.216 59.4768C226.842 57.4289 223.104 56.0643 218.592 56.0643ZM237.078 57.1934H235.417C234.794 57.1934 234.319 57.37 233.964 57.6665C233.577 58.0239 233.398 58.4991 233.398 59.2097V61.2576C233.398 61.9704 233.577 62.4435 233.964 62.8009C234.319 63.0974 234.794 63.2761 235.417 63.2761H237.078V78.0802C237.078 81.8774 238.116 84.2512 240.044 86.1519C241.825 87.9012 244.14 88.9987 248.175 88.9987H250.696C251.32 88.9987 251.793 88.8221 252.151 88.5256C252.536 88.1682 252.773 87.693 252.773 86.9824V84.4004C252.773 83.6877 252.536 83.2146 252.151 82.8572C251.793 82.5607 251.32 82.382 250.696 82.382H250.341C248.738 82.382 247.641 81.9678 246.899 81.255C246.009 80.4245 245.564 79.1483 245.564 77.4872V63.2761H250.965C251.587 63.2761 252.063 63.0974 252.418 62.8009C252.803 62.4435 252.981 61.9704 252.981 61.2576V59.2097C252.981 58.4991 252.803 58.0239 252.418 57.6665C252.063 57.37 251.587 57.1934 250.965 57.1934H245.593V47.5195C245.593 46.7479 245.355 46.1844 245 45.7408C244.554 45.2067 243.932 44.8787 243.013 44.8787H239.66C238.739 44.8787 238.116 45.2067 237.671 45.7408C237.315 46.1844 237.078 46.7479 237.078 47.5195V57.1934ZM255.237 86.3579C255.237 87.1296 255.473 87.693 255.83 88.1388C256.274 88.6728 256.898 88.9987 257.817 88.9987H261.347C262.268 88.9987 262.891 88.6728 263.336 88.1388C263.692 87.693 263.929 87.1296 263.929 86.3579V47.5216C263.929 46.75 263.692 46.1865 263.336 45.7408C262.891 45.2067 262.268 44.8787 261.347 44.8787H257.817C256.898 44.8787 256.274 45.2067 255.83 45.7408C255.473 46.1865 255.237 46.75 255.237 47.5216V86.3579ZM179.369 69.0602C179.754 65.4102 182.544 62.6811 186.787 62.6811C190.941 62.6811 193.818 65.4102 194.204 69.0602H179.369ZM296.063 51.5249C296.685 51.5249 297.16 51.3483 297.516 51.0518C297.902 50.6944 298.081 50.2192 298.081 49.5086V46.7479C298.081 45.6798 297.873 45.1458 297.516 44.761C297.19 44.4036 296.656 44.1975 296.063 44.1975C295.588 44.1975 295.114 44.2564 294.313 44.3447L270.634 46.689C269.953 46.7479 269.627 46.9561 269.39 47.2231C269.123 47.5195 269.003 47.9064 269.003 48.4405V49.9816C269.003 50.5767 269.123 50.8437 269.331 51.0813C269.596 51.3777 269.983 51.5249 270.517 51.5249H296.063ZM282.978 56.0643C272.682 56.0643 266.896 64.1066 266.896 72.5925C266.896 81.6419 273.099 89.5938 283.037 89.5938C287.993 89.5938 292.858 87.7246 295.646 84.4299C296.864 83.0064 297.844 81.0174 297.844 79.8022C297.844 79.3858 297.753 79.0305 297.516 78.7635C297.28 78.467 296.923 78.2883 296.3 78.2883H291.523C290.573 78.2883 289.921 78.6436 289.446 79.3564C288.052 81.4043 286.033 82.4724 283.067 82.4724C278.616 82.4724 275.737 79.0894 275.531 75.3805H296.241C297.16 75.3805 297.814 75.1723 298.258 74.7287C298.762 74.2535 299 73.5702 299 72.2939C299 68.4084 297.783 64.3736 295.232 61.2871C292.621 58.1711 288.586 56.0643 282.978 56.0643ZM275.59 69.0602C275.977 65.4102 278.765 62.6811 283.008 62.6811C287.163 62.6811 290.039 65.4102 290.426 69.0602H275.59Z" fill="#939CA1"/>
<path d="M97.3051 51.8807C89.6245 40.4239 82.8753 36.5636 80.9767 34.747C78.891 32.7433 77.3014 30.4725 76.2901 29.3792C74.0404 26.9213 71.1283 23.8873 66.3387 23.8873C61.7152 23.8873 58.6602 26.9003 57.6678 29.5032C57.3797 30.2454 57.1527 31.1537 56.9466 31.4838C56.4925 32.2282 54.4488 35.7163 53.6014 37.0998H57.4218L55.5631 40.6089C57.7309 40.1338 59.2783 39.7826 61.343 39.7826C63.1807 39.7826 64.5011 40.2179 65.0793 41.3722C66.1537 43.521 66.1537 50.0221 67.9703 54.9168C69.6628 59.5172 73.7923 64.0188 78.4368 67.467C78.4978 67.5069 78.5609 67.5279 78.6429 67.5279C78.8699 67.5279 79.015 67.3639 79.015 67.1978C79.015 67.0738 78.973 66.9918 78.8699 66.8888C74.9886 63.0074 71.8306 58.714 70.138 54.0085C68.4644 49.4249 68.7335 42.9827 67.268 40.1127C66.2967 38.2141 64.2341 37.72 62.3333 37.72C60.8069 37.72 59.3814 38.0291 58.7212 38.1721L60.3927 35.3441H57.5648C58.164 34.2929 58.7821 33.3215 59.0933 32.7433C59.3603 32.2471 59.4655 31.6289 59.7956 30.7837C60.8679 28.0777 63.2416 26.3641 66.3387 26.3641C70.22 26.3641 72.4908 28.862 74.7405 31.3598C75.7729 32.5162 77.4654 34.932 79.4271 36.7276C80.7685 37.966 83.3294 39.3495 87.2717 43.4179C89.5425 45.7707 92.1854 48.8257 94.9713 52.9131C104.944 67.5069 111.487 80.3682 115.141 90.4016L115.08 90.4437C104.614 83.3412 95.5495 76.632 88.2431 68.3542C83.0603 62.4713 78.5609 55.659 74.6375 46.9671C74.3684 46.3889 74.1434 45.8527 73.8953 45.2955C73.7923 45.0684 73.6892 45.0054 73.5231 45.0054C73.3171 45.0054 73.172 45.1504 73.172 45.3565C73.172 45.5836 73.275 46.0798 73.5021 47.0701C75.5878 56.0711 81.3678 64.1428 87.5409 70.8521C93.6929 77.5214 100.648 83.2592 106.367 87.4307L110.827 100.187C110.93 100.498 111.054 100.828 111.054 101.137C111.054 101.364 110.991 101.549 110.848 101.673C110.724 101.797 110.56 101.861 110.187 101.861H108.846C108.268 101.861 108.039 101.776 107.833 101.612C107.627 101.446 107.484 101.198 107.378 100.91C106.987 99.7117 104.633 93.0025 104.18 91.64C104.096 91.394 103.951 91.3099 103.787 91.3099C103.581 91.3099 103.436 91.476 103.436 91.661C103.436 91.8271 103.497 92.0122 103.602 92.5904C104.199 95.6454 104.902 99.0725 105.19 100.374C105.316 100.971 105.459 101.53 105.459 101.943C105.459 102.313 105.377 102.521 105.068 102.83L103.684 104.234C103.354 104.564 103.167 104.646 102.9 104.646C102.57 104.646 102.301 104.419 102.177 103.841C100.608 96.5116 98.2345 87.4307 97.6142 84.9097C97.4691 84.3547 97.3661 84.0435 97.036 84.0435C96.7479 84.0435 96.6449 84.2495 96.6449 84.4976C96.6449 84.6827 96.6849 84.9097 96.7059 85.0758C97.078 87.6767 98.5856 97.1529 100.215 105.803C100.505 107.289 101.062 108.114 102.343 108.114C102.921 108.114 103.476 107.886 103.993 107.392C104.841 106.545 105.087 106.318 106.1 105.328C106.821 104.625 107.317 104.337 108.556 104.337H111.611C112.334 104.337 112.725 104.152 113.076 103.82C113.406 103.511 113.613 103.078 113.613 102.458C113.613 101.818 113.449 101.303 113.221 100.662C112.437 98.5574 109.918 91.434 109.174 89.4323L109.237 89.3903C111.817 91.352 115.574 93.8498 117.227 93.8498C117.742 93.8498 118.053 93.6227 118.053 92.8174C118.053 89.0202 111.735 73.3919 97.3051 51.8807Z" fill="#939CA1"/>
<path d="M26.4345 27.8921C26.8677 26.9417 27.818 26.2815 28.9534 26.2815C30.5009 26.2815 31.7393 27.48 31.7393 29.0695C31.7393 29.9967 31.3062 30.8041 30.6249 31.2982C30.77 31.8364 30.873 32.3095 30.873 32.7637C30.873 34.4983 29.8407 35.7157 27.9421 36.3569C27.694 37.4082 27.2398 38.3586 26.4955 39.0608C25.2571 40.2572 23.9977 40.2572 23.9977 40.7534C23.9977 41.0225 24.1848 41.1865 24.6999 41.1865C26.9917 41.1865 29.2414 39.9082 29.5106 37.7804C31.6993 37.0382 33.0197 34.8284 33.0197 33.0749C33.0197 32.6186 32.9777 32.2275 32.7927 31.8575C33.3919 31.2772 34.0941 30.2869 34.0941 28.8214C34.0941 27.5409 33.5349 26.2416 32.5446 25.2912C31.6783 24.4439 30.4588 23.8867 29.0354 23.8867C26.9707 23.8867 25.6293 25.0031 24.866 26.0965C22.6142 26.0965 19.7043 28.5943 19.7043 32.1665H19.3952C19.187 30.9281 17.9087 30.0997 16.8343 30.0388C15.968 27.4379 14.0063 25.2092 10.7852 25.2092C10.4152 25.2092 9.96102 25.2302 9.56785 25.2912C8.61959 24.4228 7.56622 23.8867 6.10074 23.8867C3.29172 23.8867 0.999939 26.1385 0.999939 28.9854C0.999939 30.762 1.80522 31.9794 3.33377 33.0538C3.33377 33.0538 3.31275 33.2809 3.31275 33.3839C3.31275 35.6547 5.78956 39.2059 9.46482 39.2059C9.46482 39.782 10.1881 40.5684 10.9934 40.7113V41.0015H10.6822C5.62556 41.0015 3.47885 43.4383 3.47885 45.0678C1.97132 45.6881 0.999939 47.3596 0.999939 48.9071C0.999939 51.9831 3.25177 54.1719 6.22478 54.1719C7.21509 54.1719 8.22642 53.7808 8.92867 53.2425C9.4438 53.4276 10.104 53.5306 10.7852 53.5306C12.2108 53.5306 13.8003 53.0365 14.9146 51.4049C15.0807 51.4259 15.2237 51.4259 15.3898 51.4259C17.2064 51.4259 18.7749 50.2275 19.6012 48.659C19.8073 48.2679 19.8893 47.9588 19.8893 47.7297C19.8893 47.5047 19.7863 47.3176 19.5592 47.3176C19.2711 47.3176 19.2291 47.5867 18.714 48.0619C17.5576 49.1152 15.7809 49.5063 13.9643 49.5063C13.077 50.8078 11.9837 51.489 10.7243 51.489C9.79492 51.489 9.07375 51.2409 8.32944 50.7447C7.73021 51.4049 6.98801 51.674 6.26473 51.674C4.63525 51.674 3.47885 50.5387 3.47885 48.8861C3.47885 47.7297 4.22105 46.6994 5.25341 46.3062C5.43843 44.2625 7.62719 42.8791 10.3521 42.8791C10.7032 42.8791 11.0544 42.9001 11.4265 42.9421C11.8386 42.2819 12.8289 41.5797 14.2334 41.3926C14.5236 41.3526 14.7485 41.3316 14.9146 41.2496C15.0807 41.1655 15.1627 41.0015 15.1627 40.8144C15.1627 40.6504 15.0997 40.5053 14.9357 40.4023C14.7906 40.3203 14.5425 40.2803 14.2544 40.2172C12.953 39.9691 11.4055 39.1638 10.6212 37.2022C7.50314 37.2022 5.21135 34.7043 5.21135 31.8974V31.7124C4.179 31.2982 3.47885 30.3079 3.47885 29.1305C3.47885 27.583 4.69623 26.3446 6.24371 26.3446C7.17304 26.3446 7.97832 26.7987 8.49554 27.48C8.92867 27.3559 9.42277 27.3139 9.89795 27.3139C12.2108 27.3139 14.6876 28.7793 15.1627 31.6283C18.1358 31.8974 18.838 34.4163 19.023 35.4697C19.1261 36.0058 19.2081 36.46 19.5592 36.46C19.9313 36.46 20.0133 36.0458 20.1374 35.4886C20.3645 34.4373 20.7576 33.59 21.5419 32.9298C21.5419 30.2238 23.5645 27.8921 26.4345 27.8921Z" fill="#939CA1"/>
<path d="M32.4417 44.0764C31.4703 45.4599 30.7701 46.1411 28.5603 48.742C25.6504 52.1902 24.1219 54.9781 21.582 61.1702C21.9962 61.1281 22.5954 61.0882 23.2556 61.0882C23.5857 61.0882 23.8527 61.0882 24.288 61.1071L24.597 60.4469C26.0226 57.3919 27.9401 53.2625 30.6251 50.0834L31.5544 48.9901C34.3192 45.75 36.0328 43.8283 37.1072 39.4108C37.4794 37.8423 37.7885 36.4399 38.8418 35.4265C39.7901 34.5182 40.9885 34.1271 42.2059 34.1271C43.2383 34.1271 44.0036 34.3752 45.118 34.8483C46.1293 35.2814 46.4993 35.3655 47.5737 35.3655C47.9459 35.3655 48.2129 35.3445 48.461 35.3235L47.0166 37.2641L48.9782 38.6476C46.5204 39.3688 45.221 41.7447 44.7858 42.838C44.7038 43.0651 44.6638 43.2101 44.6638 43.3552C44.6638 43.5213 44.7458 43.6853 44.9939 43.6853C45.2609 43.6853 45.467 43.4793 45.8181 43.0651C47.0166 41.6206 47.9669 40.6282 52.3823 39.2468L49.2663 36.892L51.6191 33.4459H49.4114C48.0069 33.4459 47.0775 33.4249 45.8602 32.8677C44.2076 32.1045 43.3623 31.7744 41.8968 31.7744C40.1013 31.7744 38.4697 32.4135 37.1283 33.6519C35.5787 35.0754 35.1035 36.9761 34.5484 39.0618C34.1132 40.6703 33.5981 42.4469 32.4417 44.0764Z" fill="#939CA1"/>
<path d="M37.1895 58.1352C36.0121 59.7248 34.4016 61.8084 33.1631 64.0182C33.5563 64.2053 34.8578 64.9076 35.312 65.1536C36.7354 63.0069 38.7181 60.366 40.0175 58.3623C41.1949 56.5457 41.6701 55.7615 41.7521 53.3246C41.7731 52.9125 41.7731 52.5193 41.8131 52.1282C41.9161 50.8688 42.2483 49.5884 43.4446 48.413C44.3319 47.5237 45.6124 47.0716 46.8928 47.0716C48.1312 47.0716 48.8524 47.4206 49.9268 47.4206C50.69 47.4206 51.2472 47.2356 51.7434 47.0506L52.1366 46.9055L51.1862 49.1784L53.4149 50.0846C51.9915 50.9718 48.8734 54.7922 48.8734 59.3127C48.8734 60.9443 49.1215 62.4497 49.4727 63.7911C49.5147 63.9362 49.5967 64.0813 49.8238 64.0813C50.0298 64.0813 50.1749 63.9572 50.1959 63.7301L50.217 63.255C50.2779 61.8715 50.381 59.6848 50.9381 57.7231C51.8675 54.42 54.3653 51.323 56.8631 49.8365L53.3119 48.289L54.8405 44.5527L53.1689 44.9039C52.1576 45.1099 51.4133 45.2949 50.526 45.2949C49.9478 45.2949 49.2876 45.2129 48.5034 45.0258C47.9042 44.8828 47.2629 44.7588 46.3567 44.7588C44.7251 44.7588 42.9695 45.3769 41.7731 46.5333C39.5843 48.6191 39.4603 50.8688 39.3152 52.8725C39.1302 55.5344 38.634 56.1946 37.1895 58.1352Z" fill="#939CA1"/>
<path d="M90.1621 59.3944C90.017 59.2094 89.893 59.1253 89.729 59.1253C89.4809 59.1253 89.3568 59.2914 89.3568 59.4764C89.3568 59.7665 89.5629 60.1177 90.0801 60.986C91.6486 63.6479 93.5893 66.3307 95.9841 68.8517C98.5639 71.5955 101.598 74.1543 104.84 76.4461L105.851 77.1484C105.996 77.2535 106.099 77.3145 106.223 77.3145C106.43 77.3145 106.575 77.1084 106.575 76.9423C106.575 76.8393 106.533 76.7341 106.409 76.6311C103.396 73.8873 100.153 70.5421 97.1194 67.3231C94.7436 64.7832 92.3088 62.1004 90.1621 59.3944Z" fill="#939CA1"/>
<path d="M23.7299 50.043C24.039 49.5278 24.9683 48.2684 25.3405 47.8752C23.7509 44.6562 21.1501 41.5802 20.0147 40.3607L19.0643 41.29C20.1598 42.8796 21.9953 45.9556 23.7299 50.043Z" fill="#939CA1"/>
<path d="M8.59799 31.4023C8.41086 31.2362 8.37091 31.1331 8.37091 31.0091C8.37091 30.8661 8.47394 30.7 8.70101 30.7C8.78301 30.7 8.86501 30.721 8.97014 30.7631C10.4966 31.3812 11.7981 32.1045 12.9545 32.9918C13.9238 33.734 14.8741 34.6444 15.8013 35.7377L14.9351 36.728C13.8628 35.8386 10.3936 32.9308 8.59799 31.4023Z" fill="#939CA1"/>
<path d="M23.2345 38.3176L22.1202 37.6364C22.8414 35.9228 23.7307 34.3543 24.782 33.1769C25.5263 32.3317 26.2286 31.6483 27.0128 30.9692C27.1978 30.8241 27.3009 30.7001 27.4859 30.7001C27.694 30.7001 27.8391 30.8662 27.8391 31.0302C27.8391 31.1122 27.7971 31.2152 27.7151 31.3393C26.4556 33.3009 23.9978 37.1822 23.2345 38.3176Z" fill="#939CA1"/>
<path d="M9.23817 47.8957C8.96904 47.9987 8.84499 48.0618 8.70202 48.0618C8.47494 48.0618 8.36981 47.8746 8.36981 47.7296C8.36981 47.5866 8.43289 47.5046 8.57796 47.3784C11.1157 45.3978 13.3466 44.6136 16.4226 44.0964L16.7926 45.3369L9.23817 47.8957Z" fill="#939CA1"/>
<path d="M62.1894 31.8775C62.1894 31.1543 62.5615 29.8528 63.903 29.8528C64.3571 29.8528 64.7903 29.9558 65.1414 30.1219C65.6376 30.349 65.9677 30.6791 65.9677 31.0302C65.9677 31.4024 65.5955 31.7745 65.0384 32.2287C64.4602 32.7017 63.7179 33.137 63.1187 33.137C62.3975 33.137 62.1894 32.4536 62.1894 31.8775Z" fill="#939CA1"/>
<path d="M41.2359 37.9046C41.2359 37.0173 41.7721 36.0459 42.8044 36.0459C43.2586 36.0459 43.7947 36.231 44.1879 36.6052C44.415 36.8113 44.518 37.0362 44.518 37.2654C44.518 37.7616 44.0428 38.2347 43.4856 38.5648C43.0525 38.8129 42.5984 38.979 42.2073 38.979C41.566 38.979 41.2359 38.5837 41.2359 37.9046Z" fill="#939CA1"/>
<path d="M46.0873 50.6422C46.0873 50.4361 46.1084 50.188 46.1904 49.9399C46.3565 49.4038 46.7055 48.8865 47.5738 48.8865C47.967 48.8865 48.398 48.9896 48.7492 49.2398C49.0604 49.4458 49.1844 49.7129 49.1844 49.982C49.1844 50.8693 47.6979 51.9016 46.9536 51.9016C46.4174 51.9016 46.0873 51.3844 46.0873 50.6422Z" fill="#939CA1"/>
<path d="M37.9536 76.6938C35.1677 76.6938 33.9272 75.3734 33.9272 73.7019C33.9272 70.7689 39.0679 67.901 43.6914 66.1243L44.8899 67.6739C42.0409 68.8072 36.3031 71.2461 36.3031 73.3508C36.3031 74.093 36.7362 74.6312 38.4687 74.6312C41.4838 74.6312 44.7259 73.1637 47.7178 71.6982C47.9449 71.5952 48.214 71.4921 48.4621 71.4921C48.8532 71.4921 49.1013 71.6162 49.3894 72.0283L49.8856 72.7095C46.3974 74.6312 42.0409 76.6938 37.9536 76.6938Z" fill="#939CA1"/>
<path d="M45.6335 77.4794C42.9086 79.0059 40.0806 80.0193 37.5828 80.0193C34.7948 80.0193 32.318 78.8209 30.2533 75.7028C29.387 74.3824 28.7058 72.7319 27.8795 71.2664C26.8892 69.5318 25.8148 68.6025 23.9372 68.6025C22.2236 68.6025 20.55 69.3047 18.7755 70.0679L18.8575 70.4611C19.0025 71.1003 19.2506 71.5545 19.8478 71.5545C20.1169 71.5545 20.386 71.4325 20.5311 71.3905C21.5214 71.0793 22.2426 70.8101 23.256 70.8101C24.8035 70.8101 25.5457 71.7206 26.5991 73.9493L26.9922 74.7756C25.9178 75.1477 23.399 75.3327 21.5214 75.3327H20.6341L20.7792 76.22C20.8402 76.5922 20.9852 76.9012 21.2943 77.0463C21.6644 77.2313 22.2026 77.2524 23.1319 77.2524C25.4847 77.2524 27.1983 76.9643 28.1886 76.7141C30.7285 80.4945 34.2166 81.939 37.5828 81.939C40.4507 81.939 43.3627 80.8856 46.1507 79.3591L45.6335 77.4794Z" fill="#939CA1"/>
<path d="M48.4404 78.4083L47.9463 76.5076C52.1977 74.2179 56.079 72.3802 62.2731 71.781C62.3971 74.1548 62.231 77.1488 63.9867 77.1488C65.5951 77.1488 69.1043 72.9984 73.1517 67.7967C73.5239 68.1478 74.121 68.52 74.6592 68.9321L73.6269 70.2735C69.6825 75.3533 66.3184 79.6887 63.5514 79.6887C60.9716 79.6887 60.0002 76.6526 59.9603 74.3819C56.018 74.7751 52.3007 76.0955 48.4404 78.4083Z" fill="#939CA1"/>
<path d="M103.065 36.9756C101.454 36.9756 101 36.0862 101 34.8289C101 32.228 102.632 28.4918 103.664 26.364H101.164C99.8648 28.8829 94.745 36.9546 91.9781 40.2998L93.5676 42.0112C95.0541 40.3607 96.6857 37.5538 98.4603 34.7869H98.7904C98.7904 34.9319 98.7714 35.0959 98.7714 35.241C98.7714 37.5748 99.9678 39.3073 102.92 39.3073C104.736 39.3073 107.585 38.399 110.27 37.4907C112.499 36.7275 114.543 35.9433 115.554 35.6552V33.1784C114.398 33.5274 112.045 34.4357 109.608 35.2831C107.049 36.1703 104.53 36.9756 103.065 36.9756Z" fill="#939CA1"/>
<path d="M108.576 44.4691C111.053 43.4179 115.492 41.6412 118.053 40.7119V38.193C112.912 40.0937 103.89 43.83 97.7377 47.1751C97.9038 47.3791 98.9782 48.8866 99.1001 49.0737C101.701 47.9993 104.035 47.2971 106.139 47.2971C109.094 47.2971 111.507 47.2971 115.555 46.3467V44.4481C113.284 44.8623 110.868 45.3564 109.3 45.3564C108.37 45.3564 108.101 45.2324 108.101 44.9233C108.101 44.7383 108.225 44.6142 108.576 44.4691Z" fill="#939CA1"/>
</g>
<path d="M55.6864 56.0707L54.694 57.9714H65.2446L64.4603 56.0707H55.6864Z" fill="#939CA1"/>
<mask id="mask1_2029_1577" style="mask-type:luminance" maskUnits="userSpaceOnUse" x="-893" y="-36" width="1258" height="1550">
<path d="M-892.999 1513.89H364.56V-35.7128H-892.999V1513.89Z" fill="white"/>
</mask>
<g mask="url(#mask1_2029_1577)">
<path d="M17.681 67.4046C18.7953 67.4046 19.7036 67.0325 20.572 66.6835C21.3962 66.3513 22.2225 66.0212 23.3368 66.0212C25.9797 66.0212 29.2408 67.3016 32.1108 68.519C32.2769 68.5821 32.4619 68.622 32.6469 68.622C33.1032 68.622 33.4543 68.416 33.6793 67.9828L34.0514 67.3016C30.8934 65.464 25.8557 63.5023 23.2338 63.5023C22.0375 63.5023 21.1691 63.8135 20.3449 64.1415C19.4156 64.5157 18.6103 64.9068 17.763 64.9068C15.6793 64.9068 10.3325 62.8421 10.3325 60.8405C10.3325 58.4877 18.8374 57.5794 19.7667 57.5794L20.6119 55.6577C14.4409 55.6577 7.0904 57.8254 7.0904 60.6954C7.0904 61.5217 7.56558 61.9338 7.56558 62.697C7.56558 63.7294 7.0904 64.4316 7.0904 65.588C7.0904 66.3513 7.54455 67.3226 8.0807 68.17C8.6589 69.0572 9.34013 69.6333 9.34013 70.3776C9.34013 70.9348 8.97008 71.595 8.97008 72.8965C8.97008 75.6824 10.5596 77.3771 13.6546 80.6991L14.2748 81.3593C11.716 82.3517 6.94532 84.4164 5.83097 84.8895C1.97068 86.5 1.0014 88.4617 1.0014 91.5588C1.0014 92.7551 1.0014 94.1176 1.0834 95.335H1.82561C3.37519 95.335 3.56021 94.4077 3.56021 93.5205C3.56021 92.9212 3.53919 92.24 3.53919 91.4957C3.56021 89.7842 3.62329 88.2557 6.38815 87.0173C7.5046 86.5211 12.9733 84.2923 17.0418 82.5577C18.2381 82.0405 19.3525 81.6074 20.5909 81.6074C21.9744 81.6074 23.5639 82.2066 25.5466 83.384C27.2181 84.3743 28.9738 85.7158 30.3573 87.2633L32.1108 85.9218C30.6033 84.1473 28.5196 82.5577 26.4339 81.3193C24.3482 80.0809 22.4916 79.3577 20.9231 79.3577C20.2419 79.3577 19.6847 79.4817 19.2095 79.6058C18.6523 79.7508 18.1351 79.9148 17.4749 79.9148C16.7117 79.9148 16.0704 79.7298 15.1411 78.6554C14.79 78.2643 12.5612 75.7244 12.0861 74.9822C11.859 74.6311 11.4469 73.9289 11.4469 73.1026C11.4469 72.7514 11.5079 72.3393 11.716 71.9672C13.6335 73.4537 16.0094 74.362 18.8983 74.7131L18.5073 72.7514C14.3568 71.6581 9.93936 68.0039 9.93936 65.6511C9.93936 65.1549 10.0634 64.8038 10.2505 64.3707C11.859 65.8572 15.6373 67.4046 17.681 67.4046Z" fill="#939CA1"/>
<path d="M47.3882 67.7767C49.9891 65.939 52.672 65.733 54.8397 65.733C56.1412 65.733 57.6676 65.918 59.2782 66.1241C60.5797 66.2902 61.755 66.4142 63.1595 66.4142C65.9874 66.4142 68.8364 65.3819 70.0748 64.8436C70.4259 65.2788 71.0252 65.857 71.5003 66.2691C70.9011 66.6413 67.1039 68.7039 63.2226 68.7039C61.509 68.7039 59.8774 68.5 58.4729 68.3128C57.2345 68.1488 55.8931 68.0038 54.5916 68.0038C53.1682 68.0038 50.2982 68.4159 48.5236 69.2632L47.3882 67.7767Z" fill="#939CA1"/>
<path d="M85.7236 75.1466C82.6265 81.6709 77.9189 86.4184 73.0894 89.1644C70.7976 90.4637 68.7329 91.3111 64.2754 91.3111H54.6331C51.187 91.3111 49.0193 91.7652 47.3268 92.1984C45.5081 92.6735 44.3538 93.1466 42.5161 93.1466C39.7912 93.1466 37.2723 91.8052 36.055 90.5268L38.3257 88.7312L37.1903 87.2216C36.5301 87.6989 28.4584 93.6638 26.7638 95.0053L26.6608 94.9443C26.7028 94.5322 26.7028 94.16 26.7028 93.7879C26.7028 89.2464 24.596 88.1509 21.3981 86.8726L19.2303 88.1509C23.6268 89.6185 24.7201 90.7938 24.7201 94.0759C24.7201 96.6789 23.7908 97.7091 22.4493 98.4955C21.0659 99.3008 19.3523 99.6708 17.8468 99.6708C17.2056 99.6708 16.9175 99.7949 16.6904 100.022C16.4423 100.27 16.3183 100.642 16.3183 101.157V101.881H16.8355C19.6004 101.881 22.1613 101.447 24.9682 99.2377L34.1143 92.0953C35.4137 93.5818 38.6979 95.6465 42.5771 95.6465C44.7658 95.6465 46.1704 95.1083 48.193 94.5932C49.7615 94.2 51.2901 93.8489 54.6331 93.8489H64.3154C69.2711 93.8489 71.6659 92.8165 74.3067 91.3321C80.0467 88.111 84.9393 82.6612 87.7063 76.404C86.983 75.9519 86.3018 75.5377 85.7236 75.1466Z" fill="#939CA1"/>
<path d="M70.1788 82.9091C72.6766 78.9037 74.9053 75.3525 80.3762 72.4636C79.798 72.1124 78.9738 71.5763 78.5386 71.2861C76.4129 72.2155 74.3082 74.072 72.5126 75.9517C68.3832 80.2451 68.7533 82.7219 64.3989 84.3956C63.3035 84.8077 61.962 85.2618 60.2484 85.655C59.2371 82.5369 56.6993 79.4398 54.0144 79.4398C52.1557 79.4398 50.009 80.4091 47.5322 81.5045C44.6223 82.785 41.9583 84.2505 41.1131 84.8077L42.2485 86.3362C43.1147 85.8589 45.6126 84.6205 48.1104 83.5482C50.2781 82.6189 52.2398 81.8557 53.5602 81.8557C55.6859 81.8557 57.0694 84.2715 57.8347 86.2101C55.0467 86.8724 50.4632 87.0364 49.0818 87.0364C48.4405 87.0364 48.2134 87.1394 47.9863 87.3265C47.7803 87.5115 47.6142 87.8416 47.5112 88.2958L47.3472 88.998H48.8316C56.5543 88.998 63.8417 87.7807 68.5262 84.9317C69.1885 85.1188 69.7667 85.2408 70.5089 85.2408C73.1918 85.2408 75.9587 83.7753 77.6933 82.4339C78.3115 81.9587 78.4566 81.5235 78.4566 81.0504C78.4566 80.8233 78.4355 80.6173 78.4145 80.4091L78.3325 79.6059C75.8557 81.5655 73.791 83.0331 71.2322 83.0331C70.778 83.0331 70.4479 82.9911 70.1788 82.9091Z" fill="#939CA1"/>
</g>
</svg>
