<svg width="24" height="24" viewBox="0 0 24 24" fill="none" xmlns="http://www.w3.org/2000/svg">
<mask id="mask0_2028_1282" style="mask-type:alpha" maskUnits="userSpaceOnUse" x="0" y="0" width="24" height="24">
<rect width="24" height="24" fill="#D9D9D9"/>
</mask>
<g mask="url(#mask0_2028_1282)">
<path d="M5.29999 18.6998L12.35 16.1998L7.79999 11.6498L5.29999 18.6998ZM23.025 7.02481C22.875 7.17481 22.7 7.2498 22.5 7.2498C22.3 7.2498 22.125 7.17481 21.975 7.02481L21.9 6.94981C21.6667 6.71647 21.375 6.5998 21.025 6.5998C20.675 6.5998 20.3833 6.71647 20.15 6.94981L15.075 12.0248C14.925 12.1748 14.75 12.2498 14.55 12.2498C14.35 12.2498 14.175 12.1748 14.025 12.0248C13.875 11.8748 13.8 11.6998 13.8 11.4998C13.8 11.2998 13.875 11.1248 14.025 10.9748L19.1 5.89981C19.6333 5.36647 20.275 5.0998 21.025 5.0998C21.775 5.0998 22.4167 5.36647 22.95 5.89981L23.025 5.9748C23.175 6.1248 23.25 6.29981 23.25 6.4998C23.25 6.6998 23.175 6.8748 23.025 7.02481ZM9.97499 4.0248C10.125 3.8748 10.3 3.7998 10.5 3.7998C10.7 3.7998 10.875 3.8748 11.025 4.0248L11.15 4.1498C11.6833 4.68314 11.95 5.31647 11.95 6.04981C11.95 6.78314 11.6833 7.41647 11.15 7.94981L11.075 8.02481C10.925 8.17481 10.75 8.24981 10.55 8.24981C10.35 8.24981 10.175 8.17481 10.025 8.02481C9.87499 7.8748 9.79999 7.6998 9.79999 7.4998C9.79999 7.29981 9.87499 7.12481 10.025 6.97481L10.1 6.89981C10.3333 6.66647 10.45 6.38314 10.45 6.04981C10.45 5.71647 10.3333 5.43314 10.1 5.19981L9.97499 5.07481C9.82499 4.9248 9.74999 4.7498 9.74999 4.5498C9.74999 4.3498 9.82499 4.1748 9.97499 4.0248ZM14.025 2.0248C14.175 1.8748 14.35 1.7998 14.55 1.7998C14.75 1.7998 14.925 1.8748 15.075 2.0248L16.15 3.0998C16.6833 3.63314 16.95 4.27481 16.95 5.02481C16.95 5.77481 16.6833 6.41647 16.15 6.94981L13.075 10.0248C12.925 10.1748 12.75 10.2498 12.55 10.2498C12.35 10.2498 12.175 10.1748 12.025 10.0248C11.875 9.87481 11.8 9.69981 11.8 9.49981C11.8 9.29981 11.875 9.12481 12.025 8.97481L15.1 5.89981C15.3333 5.66647 15.45 5.3748 15.45 5.02481C15.45 4.67481 15.3333 4.38314 15.1 4.1498L14.025 3.0748C13.875 2.9248 13.8 2.7498 13.8 2.5498C13.8 2.3498 13.875 2.1748 14.025 2.0248ZM22.025 14.0248C21.875 14.1748 21.7 14.2498 21.5 14.2498C21.3 14.2498 21.125 14.1748 20.975 14.0248L19.9 12.9498C19.6667 12.7165 19.375 12.5998 19.025 12.5998C18.675 12.5998 18.3833 12.7165 18.15 12.9498L17.075 14.0248C16.925 14.1748 16.75 14.2498 16.55 14.2498C16.35 14.2498 16.175 14.1748 16.025 14.0248C15.875 13.8748 15.8 13.6998 15.8 13.4998C15.8 13.2998 15.875 13.1248 16.025 12.9748L17.1 11.8998C17.6333 11.3665 18.275 11.0998 19.025 11.0998C19.775 11.0998 20.4167 11.3665 20.95 11.8998L22.025 12.9748C22.175 13.1248 22.25 13.2998 22.25 13.4998C22.25 13.6998 22.175 13.8748 22.025 14.0248ZM2.69999 19.9998L6.47499 9.49981C6.55833 9.28314 6.68749 9.11647 6.86249 8.99981C7.03749 8.88314 7.22499 8.82481 7.42499 8.82481C7.55833 8.82481 7.68333 8.84981 7.79999 8.89981C7.91666 8.94981 8.02499 9.02481 8.12499 9.12481L14.875 15.8748C14.975 15.9748 15.05 16.0831 15.1 16.1998C15.15 16.3165 15.175 16.4415 15.175 16.5748C15.175 16.7748 15.1167 16.9623 15 17.1373C14.8833 17.3123 14.7167 17.4415 14.5 17.5248L3.99999 21.2998C3.79999 21.3831 3.60833 21.3956 3.42499 21.3373C3.24166 21.279 3.08333 21.1831 2.94999 21.0498C2.81666 20.9165 2.72083 20.7581 2.66249 20.5748C2.60416 20.3915 2.61666 20.1998 2.69999 19.9998Z" fill="#E56515"/>
</g>
</svg>
