<svg width="300" height="132" viewBox="0 0 300 132" fill="none" xmlns="http://www.w3.org/2000/svg">
<path d="M152.847 45.5117C150.149 45.5117 147.902 47.6108 147.902 50.2878C147.902 53.0025 150.149 55.101 152.847 55.101C155.655 55.101 157.864 53.0025 157.864 50.2878C157.864 47.6108 155.655 45.5117 152.847 45.5117ZM165.691 45.5117C162.957 45.5117 160.748 47.6108 160.748 50.2878C160.748 53.0025 162.957 55.101 165.691 55.101C168.462 55.101 170.711 53.0025 170.711 50.2878C170.711 47.6108 168.462 45.5117 165.691 45.5117Z" fill="#939CA1"/>
<path d="M195.438 57.5303C189.664 57.5303 184.978 62.0177 184.978 67.5905C184.978 73.1645 189.665 77.6878 195.401 77.6878C198.587 77.6878 200.988 76.4206 203.125 74.502C203.65 74.0327 203.536 73.5624 203.236 73.2742L201.024 71.1733C200.385 70.5575 200.087 70.811 199.677 71.1733C198.776 71.9693 197.085 72.6577 195.438 72.6577C192.513 72.6577 190.154 70.4132 190.154 67.5905C190.154 64.8036 192.514 62.5234 195.401 62.5234C197.086 62.5234 198.776 63.2489 199.677 64.0448C200.087 64.4063 200.385 64.6596 201.024 64.0448L203.236 61.9465C203.536 61.6565 203.65 61.1838 203.125 60.7135C200.988 58.7958 198.586 57.5303 195.438 57.5303ZM114.144 58.0992C113.467 58.0992 113.13 58.4258 113.13 59.0782V76.087C113.13 76.7374 113.467 77.066 114.144 77.066H117.589C118.263 77.066 118.599 76.7374 118.599 76.087V69.8979L124.328 76.4124C124.666 76.8124 125.003 77.066 125.49 77.066H130.509C131.147 77.066 131.369 76.4487 131.033 75.9785L123.132 66.5691L129.461 59.2211C129.947 58.7518 129.646 58.0992 128.972 58.0992H124.217C123.767 58.0992 123.319 58.282 122.944 58.7157L118.599 64.2195V59.0782C118.599 58.4258 118.263 58.0992 117.589 58.0992H114.144ZM133.973 58.0992C133.261 58.0992 132.925 58.4268 132.925 59.0782V76.087C132.925 76.7383 133.261 77.066 133.973 77.066H138.318L146.584 66.3681V76.087C146.584 76.7383 146.883 77.066 147.595 77.066H150.937C151.649 77.066 151.985 76.7383 151.985 76.087V59.0782C151.985 58.4268 151.649 58.0992 150.937 58.0992L146.481 58.1019L138.328 69.0168V59.0783C138.328 58.4269 138.03 58.0992 137.318 58.0992L133.973 58.0992ZM157.345 58.1046C156.633 58.1046 156.298 58.4296 156.298 59.081V76.0897C156.298 76.7412 156.633 77.0688 157.345 77.0688H161.015C161.728 77.0688 162.026 76.7412 162.026 76.0897V59.081C162.026 58.4296 161.728 58.1046 161.015 58.1046L157.345 58.1046ZM167.641 58.1046C166.928 58.1046 166.591 58.427 166.591 59.0783V76.0897C166.591 76.7412 166.928 77.0688 167.641 77.0688H177.527C184.53 77.0688 186.401 69.2902 180.824 66.7201C184.304 63.4986 181.983 58.1046 176.627 58.1046H167.641ZM205.649 58.1046C204.974 58.1046 204.635 58.3949 204.635 59.081V62.3779C204.635 63.065 204.974 63.3914 205.649 63.3914H209.925V76.0897C209.925 76.7412 210.264 77.0688 210.975 77.0688H214.645C215.357 77.0688 215.656 76.7412 215.656 76.0897V63.3914H219.932C220.604 63.3914 220.943 63.065 220.943 62.3779V59.081C220.943 58.3949 220.604 58.1046 219.932 58.1046H205.649ZM227.481 58.1046C226.903 58.1046 226.527 58.3679 226.37 58.8243L219.644 76.1241C219.439 76.6449 219.744 77.0688 220.319 77.0688H224.452C224.797 77.0688 225.17 76.8141 225.283 76.4972L226.19 73.957H226.196H233.3H233.303L234.213 76.4972C234.326 76.8141 234.699 77.0688 235.044 77.0688H239.177C239.752 77.0688 240.058 76.6449 239.854 76.1241L233.123 58.8243C232.968 58.3679 232.593 58.1046 232.014 58.1046H227.481ZM242.768 58.1046C242.056 58.1046 241.717 58.4296 241.717 59.081V76.0924C241.717 76.743 242.056 77.0688 242.768 77.0688H246.438C247.149 77.0688 247.446 76.743 247.446 76.0924V71.5756H250.595C255.014 71.5756 258.382 69.2319 258.382 64.9975C258.382 60.7553 254.939 58.1046 250.819 58.1046H242.768ZM171.909 62.3383H175.466C177.75 62.3383 177.787 65.2701 175.466 65.2701H171.909V62.3383ZM247.446 62.4864H250.333C254.188 62.4864 254.452 67.3763 250.407 67.3763H247.446V62.4864ZM229.746 64.037H229.752L231.75 69.6149H227.749L229.746 64.037ZM171.909 69.2894H176.627C179.51 69.2894 179.697 72.8351 176.627 72.8351H171.909V69.2894Z" fill="#939CA1"/>
<path fill-rule="evenodd" clip-rule="evenodd" d="M69.2799 40.2593C67.3135 40.2593 65.7209 41.8061 65.7209 43.715V56.3948C65.7209 58.3047 67.3135 59.8532 69.2799 59.8532C71.2451 59.8532 72.8361 58.3047 72.8361 56.3948V43.715C72.8361 41.8061 71.2451 40.2593 69.2799 40.2593ZM44.8728 57.2866C43.4912 57.4017 42.248 58.2999 41.7928 59.6627C41.1868 61.4797 42.2076 63.4309 44.0763 64.0207L56.4836 67.9395C58.3524 68.5294 60.3608 67.5356 60.9687 65.7195C61.5757 63.9034 60.5533 61.9513 58.6825 61.3615L46.2752 57.4453C45.808 57.2976 45.3333 57.2482 44.8728 57.2866ZM93.687 57.2893C93.2264 57.2507 92.7519 57.2974 92.2846 57.4454L79.8773 61.3642C78.0086 61.954 76.9868 63.9061 77.5937 65.7222C78.2018 67.5381 80.2074 68.5304 82.0761 67.9396L94.4834 64.0235C96.3521 63.4336 97.375 61.4815 96.767 59.6654C96.3125 58.3035 95.0686 57.4051 93.687 57.2893ZM62.1673 74.5679C61.0262 74.5301 59.8852 75.0256 59.1641 75.9914L51.4985 86.2501C50.3435 87.7965 50.6969 89.9603 52.287 91.0818C53.8751 92.2033 56.1023 91.8578 57.2563 90.3144L64.9218 80.0531C66.0779 78.5088 65.7217 76.3492 64.1307 75.2267C63.5352 74.8059 62.852 74.5905 62.1673 74.5679ZM76.3951 74.5679C75.7101 74.5905 75.0253 74.8059 74.4291 75.2267C72.8399 76.3492 72.4855 78.5088 73.6405 80.0531L81.3061 90.3144C82.46 91.8578 84.6873 92.2033 86.2754 91.0818C87.8655 89.9603 88.2189 87.7965 87.0639 86.2501L79.3983 75.9914C78.6771 75.0256 77.5367 74.5301 76.3951 74.5679Z" fill="#939CA1"/>
</svg>
