<svg width="300" height="132" viewBox="0 0 300 132" fill="none" xmlns="http://www.w3.org/2000/svg">
<path d="M30 74.9383V75.699C30 75.699 30.1902 75.699 30.3803 75.699C30.5705 75.699 31.5214 75.5089 32.6624 75.5089C33.8035 75.5089 34.9445 75.699 35.1347 75.699C35.3249 75.699 35.7052 75.699 35.7052 75.5089C35.7052 75.3187 35.5151 75.1285 35.3249 75.1285C35.1347 75.1285 34.1838 74.558 33.9937 73.7973C33.9937 73.0366 33.9937 72.0857 34.1838 71.5152L37.2266 54.3995L47.6862 75.5089C47.6862 75.5089 47.6862 75.699 47.8764 75.699C48.0666 75.699 48.0666 75.5089 48.0666 75.5089L57.5753 54.5897C57.5753 54.5897 57.5753 54.3995 57.7655 54.3995C57.9556 54.3995 57.9556 54.7799 57.9556 54.7799L61.1886 73.6071C61.1886 73.7973 61.1886 74.558 60.9984 74.9383C60.6181 75.5089 60.2377 75.699 60.2377 75.8892C60.2377 76.0794 60.4279 76.0794 60.9984 76.0794C61.1886 76.0794 62.5198 75.8892 63.4707 75.8892C64.2314 75.8892 65.943 76.0794 66.5135 76.0794C66.8938 76.0794 67.084 76.0794 67.084 75.8892C67.084 75.699 66.8938 75.5089 66.7036 75.5089C66.5135 75.5089 65.1823 75.1285 64.8019 73.9875C64.4216 72.8464 64.4216 72.2759 64.4216 72.2759L60.8082 51.3567C60.8082 50.9764 60.8082 50.0255 61.3788 49.6452C61.9493 49.2648 62.71 49.0746 63.0903 49.0746C63.4707 49.0746 63.4707 48.8845 63.4707 48.6943C63.4707 48.5041 63.4707 48.3139 63.0903 48.3139C62.71 48.3139 60.8082 48.3139 60.2377 48.3139C59.6672 48.3139 57.9556 48.3139 57.7655 48.3139C57.5753 48.3139 57.3851 48.5041 57.3851 48.6943C57.3851 48.8845 57.5753 49.6452 57.5753 50.2157C57.3851 50.7862 49.0174 69.4233 49.0174 69.4233C49.0174 69.4233 49.0174 69.6135 48.8273 69.6135C48.6371 69.6135 48.6371 69.4233 48.6371 69.4233C48.6371 69.4233 39.1284 50.596 39.1284 50.0255C39.1284 49.6452 39.1284 49.0746 39.1284 48.8845C39.1284 48.6943 39.1284 48.5041 39.1284 48.3139C39.1284 48.1238 38.9382 47.9336 38.748 47.9336C38.5578 47.9336 37.4168 48.1238 37.0365 48.1238C36.6561 48.1238 34.374 48.1238 33.9937 48.1238C33.6133 48.1238 32.8526 48.1238 32.6624 48.1238C32.4723 48.1238 32.4723 48.3139 32.4723 48.5041C32.4723 48.6943 32.6624 48.6943 33.0428 48.8845C33.6133 48.8845 34.9445 49.6452 35.1347 50.2157C35.3249 50.7862 35.3249 51.5469 35.1347 52.3076C35.3249 53.0683 31.7116 72.4661 31.7116 72.4661C31.7116 72.4661 31.3312 73.7973 31.141 74.1777C30.5705 74.9383 30 74.9383 30 74.9383Z" fill="#939CA1"/>
<path d="M78.1142 68.6624C78.1142 68.6624 76.4026 72.4659 76.4026 72.8462C76.2124 73.0364 76.0223 73.6069 76.0223 73.9872C76.0223 74.5578 76.2124 74.9381 76.2124 75.3185C76.2124 75.5086 76.4026 75.6988 76.2124 75.889C76.2124 76.0792 75.8321 75.889 75.6419 75.889C75.4518 75.889 74.5009 75.6988 73.9304 75.6988C73.3598 75.6988 71.8384 75.889 71.6483 76.0792C71.2679 76.2693 71.2679 76.0792 71.0777 75.889C71.0777 75.6988 71.0777 75.6988 71.4581 75.5086C71.8384 75.3185 72.2188 75.1283 72.7893 74.5578C73.55 73.9872 73.9304 72.8462 73.9304 72.8462L84.5801 48.6941C84.5801 48.6941 84.7703 48.1235 84.9605 48.1235C85.1506 48.1235 85.3408 48.3137 85.3408 48.3137C85.3408 48.3137 95.0397 71.1346 95.2299 71.7052C95.4201 72.2757 95.9906 73.2265 96.5611 73.9872C97.1316 74.7479 98.0825 75.3185 98.2727 75.3185C98.4628 75.3185 98.8432 75.5086 98.653 75.889C98.653 76.2693 97.7021 75.889 97.1316 75.889C96.5611 75.889 95.6102 75.6988 95.0397 75.6988C94.4692 75.6988 92.9478 75.889 92.7576 75.889C92.5674 75.889 92.3773 76.0792 92.1871 75.889C91.9969 75.6988 92.1871 75.5086 92.3773 75.3185C92.5674 75.1283 92.7576 74.3676 92.7576 74.1774C92.7576 73.9872 92.5674 73.2265 92.5674 73.2265L90.6657 68.6624H78.1142ZM78.8749 66.9508H89.905H90.0952L84.7703 53.8288C84.7703 53.8288 84.7703 53.6386 84.5801 53.6386L84.3899 53.8288L78.8749 66.9508Z" fill="#939CA1"/>
<path d="M106.45 48.3137C106.26 48.3137 105.879 48.1235 105.689 48.3137C105.499 48.3137 105.499 48.5039 105.499 48.6941C105.499 48.8842 105.879 49.0744 106.07 49.0744C106.26 49.0744 107.401 49.8351 107.401 50.786C107.401 51.5467 107.401 73.4167 107.401 73.4167C107.401 73.7971 107.02 74.7479 106.45 74.9381C106.07 75.1283 105.499 75.3185 105.499 75.5086C105.499 75.6988 105.499 75.889 106.07 75.889C106.64 75.889 107.781 75.6988 108.732 75.6988C109.683 75.6988 110.634 75.6988 111.204 75.889C111.585 75.889 112.345 76.0792 112.535 75.889C112.726 75.6988 112.726 75.5086 112.535 75.5086C112.345 75.3185 111.585 75.1283 111.394 74.9381C111.204 74.7479 110.824 74.1774 110.824 73.6069V50.9762C110.824 50.5958 110.824 49.2646 113.677 49.2646C115.008 49.2646 119.382 50.0253 119.382 55.5403C119.382 59.9143 116.149 62.0063 113.867 62.0063C113.106 62.0063 112.345 62.0063 112.345 62.0063C112.345 62.1964 112.535 62.3866 112.535 62.3866C112.726 62.767 117.29 68.4722 117.86 69.0427C118.431 69.8034 121.474 73.7971 123.946 74.7479C124.707 75.1283 125.657 75.5086 128.51 75.3185C128.89 75.3185 128.89 75.1283 128.89 74.9381C128.89 74.9381 128.89 74.7479 128.7 74.7479C128.51 74.7479 127.179 74.7479 125.848 73.9872C124.516 73.2265 124.136 72.656 122.995 71.1346C122.234 70.5641 116.529 63.1473 116.529 63.1473C116.529 63.1473 116.149 62.767 116.529 62.767C116.719 62.767 122.425 61.2456 122.425 55.16C122.425 54.3993 122.234 48.1235 114.057 48.1235C112.726 48.1235 109.683 48.5039 109.112 48.5039C108.352 48.5039 106.64 48.3137 106.45 48.3137Z" fill="#939CA1"/>
<path d="M130.032 48.5038C130.032 48.3136 130.412 48.3136 130.792 48.3136C130.983 48.3136 132.504 48.5038 133.455 48.5038C134.406 48.5038 136.117 48.5038 136.498 48.3136C136.878 48.1235 137.258 48.3136 137.258 48.5038C137.258 48.694 136.878 49.0743 136.878 49.0743C136.688 49.2645 136.308 49.835 136.308 50.2154C136.308 50.5957 136.498 50.9761 136.688 51.3564C136.878 51.7368 145.056 70.1837 145.056 70.1837C145.056 70.1837 145.056 70.3739 145.246 70.3739C145.436 70.3739 145.436 69.9935 145.436 69.9935L155.515 51.3564C155.515 51.3564 155.705 51.1663 155.705 50.2154C155.705 49.6449 155.515 49.4547 155.515 49.2645C155.325 48.8842 154.945 48.694 154.945 48.5038C155.135 48.1235 155.515 48.3136 155.895 48.3136C156.276 48.3136 156.466 48.3136 156.656 48.3136C156.846 48.3136 160.079 48.5038 160.27 48.3136C160.46 48.3136 161.22 48.1235 161.22 48.5038C161.22 48.8842 161.03 48.8842 160.65 49.0743C160.269 49.2645 158.938 50.2154 157.607 52.4975C157.227 53.2582 142.013 81.5941 142.013 81.5941C141.632 82.1647 140.111 84.2566 139.16 84.2566H136.117C136.117 84.2566 137.639 83.8762 138.399 83.1155C138.78 82.7352 139.35 81.9745 139.731 81.2138C140.111 80.6433 143.154 74.7479 143.154 74.7479C143.154 74.7479 143.154 74.5577 142.964 74.1773C142.773 73.797 133.645 53.2582 133.645 53.2582C133.645 53.068 133.265 52.3073 132.694 51.3564C132.124 50.5957 131.173 49.6449 130.792 49.2645C130.412 48.8842 130.032 48.694 130.032 48.5038Z" fill="#939CA1"/>
<path d="M231.965 48.5041C231.965 48.3139 232.345 48.3139 232.726 48.3139C232.916 48.3139 234.437 48.5041 235.388 48.5041C236.339 48.5041 238.051 48.5041 238.431 48.3139C238.811 48.1237 239.192 48.3139 239.192 48.5041C239.192 48.6942 238.811 49.0746 238.811 49.0746C238.621 49.2648 238.241 49.8353 238.241 50.2156C238.241 50.596 238.431 50.9763 238.621 51.3567C238.811 51.737 246.989 70.1839 246.989 70.1839C246.989 70.1839 246.989 70.3741 247.179 70.3741C247.369 70.3741 247.369 69.9938 247.369 69.9938L257.448 51.1665C257.448 51.1665 257.638 50.9763 257.638 50.0255C257.638 49.4549 257.448 49.2648 257.258 49.0746C257.068 48.6942 256.688 48.5041 256.688 48.3139C256.878 47.9335 257.258 48.1237 257.638 48.1237C258.019 48.1237 258.209 48.1237 258.399 48.1237C258.589 48.1237 261.822 48.3139 262.013 48.1237C262.203 48.1237 262.963 47.9335 262.963 48.3139C262.963 48.6942 262.773 48.6942 262.393 48.8844C262.012 49.0746 260.681 50.0255 259.35 52.3076C258.97 53.0682 243.756 81.4042 243.756 81.4042C243.375 81.9747 241.854 84.0667 240.903 84.0667H237.86C237.86 84.0667 239.382 83.6863 240.142 82.9256C240.523 82.5453 241.093 81.7846 241.474 81.0239C241.854 80.4534 244.897 74.5579 244.897 74.5579C244.897 74.5579 244.897 74.3678 244.707 73.9874C244.516 73.6071 235.388 53.0682 235.388 53.0682C235.388 52.8781 235.008 52.1174 234.437 51.1665C233.867 50.4058 232.916 49.4549 232.535 49.0746C232.155 48.8844 231.965 48.6942 231.965 48.5041Z" fill="#939CA1"/>
<path d="M268.098 53.0677V53.2578H267.528C267.528 53.2578 266.957 52.4971 266.767 51.9266C266.577 51.7364 266.387 51.7364 266.387 51.7364H265.626V53.448H265.055V49.6445C265.055 49.6445 266.767 49.6445 266.957 49.6445C267.147 49.6445 267.908 49.8347 267.908 50.5954C267.908 51.3561 267.147 51.5463 267.147 51.5463C266.957 51.5463 267.147 51.7364 267.147 51.7364C267.337 51.9266 268.098 53.0677 268.098 53.0677ZM265.436 50.0249V51.3561H266.767C266.767 51.3561 267.337 51.3561 267.337 50.5954C267.337 50.2151 266.957 50.0249 266.767 50.0249C266.577 50.0249 265.436 50.0249 265.436 50.0249Z" fill="#939CA1"/>
<path d="M179.667 48.5039C179.667 48.3137 179.857 48.3137 180.048 48.3137C180.238 48.3137 181.379 48.3137 181.569 48.5039C181.759 48.5039 183.661 48.5039 184.231 48.5039C184.802 48.5039 185.563 48.3137 185.943 48.3137C186.133 48.3137 186.323 48.3137 186.323 48.5039C186.323 48.6941 186.323 48.6941 186.133 48.8842C185.943 48.8842 185.753 48.8842 185.372 49.2646C184.992 49.6449 184.802 50.0253 184.802 50.4056V73.2265C184.802 73.7971 185.182 74.3676 185.372 74.5578C185.563 74.9381 186.323 75.1283 186.323 75.1283C186.513 75.1283 186.704 75.3185 186.704 75.5086C186.704 75.6988 186.323 75.889 186.133 75.6988C185.753 75.6988 184.231 75.5086 183.28 75.5086C182.33 75.5086 180.998 75.5086 180.428 75.6988C180.048 75.6988 179.857 75.6988 179.857 75.5086C179.857 75.3185 179.857 75.1283 180.048 75.1283C180.238 75.1283 180.808 74.7479 181.189 74.5578C181.569 74.1774 181.759 73.4167 181.759 73.2265V50.4056C181.759 49.8351 180.808 49.2646 180.618 49.2646C180.428 49.2646 179.477 48.8842 179.667 48.5039ZM211.236 67.141H222.266C222.266 67.141 222.456 67.141 222.266 66.9508C222.076 66.7606 216.941 54.3993 216.941 54.3993C216.941 54.3993 216.941 54.0189 216.751 54.0189C216.561 54.0189 216.561 54.3993 216.561 54.3993L211.236 66.9508C211.426 66.7606 211.236 67.141 211.236 67.141ZM195.642 48.3137C195.832 48.1235 196.403 48.3137 196.783 48.3137C197.163 48.3137 199.065 48.3137 199.445 48.3137C199.826 48.3137 200.206 48.1235 200.586 48.1235C200.777 48.1235 200.967 48.1235 201.157 48.5039C201.157 48.6941 200.967 48.8842 200.586 48.8842C200.206 48.8842 199.255 49.2646 198.494 49.6449C197.734 50.0253 196.593 50.9762 196.212 51.3565C195.832 51.7368 188.986 58.9635 188.986 58.9635C188.986 58.9635 188.605 59.3438 188.605 59.534C188.605 59.7242 188.796 59.9143 188.796 59.9143C188.796 59.9143 199.445 72.4658 200.016 73.0364C200.586 73.6069 202.298 75.1283 203.629 75.1283C205.911 75.1283 206.482 73.0364 206.862 72.2757L217.322 48.6941C217.322 48.6941 217.512 48.3137 217.702 48.3137C218.082 48.3137 218.082 48.6941 218.082 48.6941C218.082 48.6941 228.162 72.2757 228.162 72.4658C228.352 72.656 228.542 73.4167 229.113 74.1774C229.683 74.9381 230.634 75.5086 230.824 75.5086C231.014 75.6988 231.204 75.5086 231.204 75.889C231.204 76.2693 230.634 76.2693 230.254 76.0792C229.873 75.889 228.542 75.889 227.781 75.889C227.021 75.889 225.88 75.889 225.689 76.0792C225.309 76.2693 225.119 76.2693 224.929 76.0792C224.738 75.889 224.929 75.5086 225.119 75.1283C225.309 74.7479 225.309 73.9872 225.309 73.7971C225.309 73.6069 223.407 69.0427 223.407 69.0427H210.666C210.666 69.0427 208.764 73.6069 208.574 73.7971C208.384 74.1774 208.384 74.5578 208.574 74.9381C208.764 75.3185 208.954 75.6988 208.954 75.889C208.954 76.0792 208.574 76.0792 208.193 76.0792C207.813 76.0792 207.242 75.889 206.672 75.889C206.101 75.889 205.531 75.889 203.819 75.889C198.875 75.889 196.973 73.0364 194.501 70.7543C193.55 69.8034 185.563 60.8652 185.563 60.8652L185.372 60.675C185.372 60.4849 185.563 60.4849 185.563 60.4849C185.563 60.4849 194.311 51.3565 194.501 51.1663C194.881 50.786 195.261 50.4056 195.452 50.0253C195.452 49.4548 195.452 48.8842 195.452 48.6941C195.452 48.6941 195.452 48.5039 195.642 48.3137Z" fill="#939CA1"/>
<path d="M262.963 51.5464C262.963 49.6447 264.485 47.9331 266.577 47.9331C268.669 47.9331 270.19 49.4545 270.19 51.5464C270.19 53.4482 268.669 55.1597 266.577 55.1597C264.485 55.1597 262.963 53.4482 262.963 51.5464ZM263.344 51.5464C263.344 53.258 264.675 54.5892 266.387 54.5892C268.098 54.5892 269.429 53.258 269.429 51.5464C269.429 49.8348 268.098 48.5036 266.387 48.5036C264.675 48.5036 263.344 49.8348 263.344 51.5464Z" fill="#939CA1"/>
</svg>
