<svg width="300" height="132" viewBox="0 0 300 132" fill="none" xmlns="http://www.w3.org/2000/svg">
<path d="M214.763 65.9999C214.763 74.505 213.088 82.9267 209.833 90.7843C206.579 98.6419 201.808 105.781 195.794 111.795C189.781 117.809 182.641 122.58 174.784 125.835C166.926 129.089 158.505 130.765 150 130.765C132.824 130.765 116.351 123.941 104.206 111.795C92.0602 99.6497 85.237 83.1766 85.237 65.9999C85.237 48.8233 92.0602 32.3502 104.206 20.2045C116.351 8.05875 132.824 1.23535 150 1.23535C158.505 1.23535 166.926 2.91054 174.784 6.16526C182.641 9.41999 189.781 14.1905 195.794 20.2045C201.808 26.2184 206.579 33.358 209.833 41.2156C213.088 49.0732 214.763 57.4949 214.763 65.9999Z" fill="white"/>
<path d="M150 0C113.563 0 84.0016 29.5621 84.0016 66C84.0016 102.438 113.563 132 150 132C186.437 132 215.998 102.438 215.998 66C215.998 29.5621 186.437 0 150 0ZM150 2.47703C158.342 2.47457 166.603 4.11575 174.31 7.30682C182.018 10.4979 189.021 15.1763 194.92 21.0748C200.819 26.9733 205.498 33.9762 208.689 41.6836C211.881 49.3909 213.523 57.6516 213.521 65.9938C213.525 74.3375 211.885 82.6002 208.695 90.3097C205.504 98.0192 200.825 105.024 194.926 110.925C189.027 116.825 182.023 121.505 174.314 124.698C166.606 127.89 158.343 129.532 150 129.529C141.657 129.532 133.395 127.89 125.687 124.698C117.979 121.506 110.975 116.827 105.076 110.927C99.1768 105.027 94.4981 98.0228 91.3071 90.314C88.1161 82.6052 86.4753 74.3432 86.4786 66C86.4762 57.6579 88.1173 49.397 91.3083 41.6893C94.4993 33.9817 99.1776 26.9783 105.076 21.0792C110.974 15.1801 117.977 10.501 125.684 7.30921C133.391 4.11738 141.652 2.47539 149.994 2.47703H150Z" fill="#939CA1"/>
<path d="M181.957 53.1157C174.427 53.1157 170.49 56.304 170.49 61.1957C170.49 62.7555 171.457 64.9892 173.085 66.0437C175.936 67.8905 178.326 68.1651 181.602 68.9637C183.48 69.4254 185.52 69.9558 185.52 71.1537C185.52 72.152 184.509 72.8945 181.839 72.8945C176.548 72.8945 175.506 70.1055 175.506 70.1055L168.73 72.595C170.165 77.156 177.184 78.7221 181.832 78.7221C186.805 78.7221 189.675 77.6614 191.503 75.9144C193.518 73.9926 193.718 72.1333 193.718 70.3676C193.718 68.8077 193.107 66.7363 190.112 65.0017C187.928 63.7476 183.523 62.9739 181.602 62.5684C180.878 62.4061 178.551 62.0692 178.551 60.6966C178.551 59.6733 180.004 59.118 181.957 59.118C185.813 59.118 186.431 61.726 186.431 61.726L193.231 59.2241C192.171 54.4509 186.58 53.1157 181.957 53.1157ZM204.431 53.2343L196.276 56.2292V77.755H204.437L204.431 53.2343ZM95.2884 53.6835V77.7487H103.449V73.2626C106.57 72.2457 109.641 71.0818 112.652 69.7748C118.355 67.1793 118.598 63.9285 118.598 61.2269C118.598 57.8764 116.102 53.6835 109.146 53.6835H103.449H95.2884ZM120.932 53.6835V77.7487H142.145V71.8213H129.092V68.633H139.343V62.7119H129.092V59.5922H141.914V53.6773L120.932 53.6835ZM145.682 53.6835V77.7487H153.843V73.2626C156.964 72.2457 160.035 71.0818 163.046 69.7748C168.749 67.1793 168.992 63.9285 168.992 61.2269C168.992 57.8764 166.496 53.6835 159.54 53.6835H153.843H145.682ZM103.449 59.5984H107.53C108.902 59.5984 110.044 60.7153 110.044 62.1316C110.044 63.8162 109.395 64.7147 106.943 65.738L103.449 67.1231V59.5984ZM153.843 59.5984H157.924C159.296 59.5984 160.438 60.7153 160.438 62.1316C160.438 63.8162 159.796 64.7147 157.337 65.738L153.843 67.1231V59.5984Z" fill="#939CA1"/>
<path d="M150 6.88818C138.469 6.89777 127.192 10.2798 117.558 16.6177C107.925 22.9556 100.355 31.9727 95.7813 42.5586C95.9934 42.6335 107.523 46.714 119.166 46.714C137.353 46.714 159.159 39.283 182.656 39.283C194.554 39.283 203.358 42.2279 204.256 42.5399C199.677 31.9517 192.101 22.9345 182.46 16.5996C172.819 10.2647 161.536 6.88889 150 6.88818Z" fill="#939CA1" fill-opacity="0.5"/>
<path d="M150.031 125.124C161.563 125.116 172.841 121.736 182.475 115.399C192.11 109.062 199.681 100.046 204.256 89.46C204.044 89.3789 192.508 85.2983 180.872 85.2983C162.684 85.2983 140.878 92.7357 117.375 92.7357C105.483 92.7357 96.6797 89.7907 95.775 89.4787C100.355 100.066 107.932 109.082 117.573 115.415C127.213 121.749 138.496 125.124 150.031 125.124Z" fill="#939CA1"/>
</svg>
